# xmcd
#
# Track frame offsets: 
#        182
#        13702
#        29380
#        43167
#        57635
#        68477
#        91997
#        107505
#        122035
#        140200
#        155687
#        168347
#        187307
#        208992
#        221480
#        235860
#        249165
#        264410
#        283280
#        305740
#
# Disc length: 4407 seconds
#
# Revision: 4
# Processed by: cddbd v1.5.2PL0 Copyright (c) Steve Scherf et al.
# Submitted via: ExactAudioCopyFreeDBPlugin 1.0
#
DISCID=34113514
DTITLE=Various Artist - Atlantic Rhythm and Blues, 1947-1974
DYEAR=1991
DGENRE=Rhythm and Blues
TTITLE0=Aretha Franklin - Don't Play That Song
TTITLE1=Jackie Moore - Precious Precious
TTITLE2=King Floyd - Groove Me
TTITLE3=Clarence Carter - Patches
TTITLE4=Wilson Pickett - Don't Knock My Love (Part 1)
TTITLE5=The Beginning of the End - Funky Nassau
TTITLE6=The Persuaders - Thin Line Between Love and Hate
TTITLE7=Aretha Franklin - Rock Steady
TTITLE8=Aretha Franklin - Day Dreaming
TTITLE9=Roberta Flack and Donny Hathaway - You've Got a Friend
TTITLE10=Betty Wright - Clean Up Woman
TTITLE11=The Spinners - Could it Be I'm Falling in Love
TTITLE12=Roberta Flack - Killing Me Softly with His Song
TTITLE13=Roberta Flack and Donny Hathaway - Where is the Love
TTITLE14=The Spinners - I'll Be Around
TTITLE15=Roberta Flack - Feel Like Makin' Love
TTITLE16=The Spinners - One of a Kind (Love Affair)
TTITLE17=Blue Magic - Sideshow
TTITLE18=The Spinners - Mighty Love
TTITLE19=Major Harris - Love Won't Let Me Wait
EXTD=1970-1974\nCD issued 1991, Atlantic, 7 82305-2
EXTT0=Aretha Franklin
EXTT1=Jackie Moore
EXTT2=King Floyd
EXTT3=Clarence Carter
EXTT4=Wilson Pickett
EXTT5=Beginning of the End
EXTT6=The Persuaders
EXTT7=Aretha Franklin
EXTT8=Aretha Franklin
EXTT9=Roberta Flack and Donny Hathaway
EXTT10=Betty Wright
EXTT11=The Spinners
EXTT12=Roberta Flack
EXTT13=Roberta Flack and Donny Hathaway
EXTT14=The Spinners
EXTT15=Roberta Flack
EXTT16=The Spinners
EXTT17=Blue Magic
EXTT18=The Spinners
EXTT19=Major Harris
PLAYORDER=
